<svg xmlns="http://www.w3.org/2000/svg" xml:space="preserve" style="enable-background:new 0 0 0 0"
  viewBox="0 185 512 150">
  <path
    d="M34.58 214.77c-8.84.98-16.27 4.07-22.16 9.12-9.26 7.99-13.6 21.18-12.2 36.18 1.26 11.92 4.91 19.91 12.2 26.51 6.31 5.75 11.78 7.99 22.02 8.84 8.98.84 16.27-.14 22.86-3.09a30.3 30.3 0 0 0 14.73-13.32c1.82-3.09 4.21-9.82 3.79-10.24-.42-.42-9.54-2.52-10.66-2.52-.56 0-.98.56-1.54 2.38-3.65 10.66-12.48 16.97-23.98 16.97-4.63 0-7.85-.84-12.9-3.09-5.33-2.52-7.99-4.91-10.52-9.82-2.66-5.05-3.79-9.4-4.07-16.41-.28-6.45.42-10.8 2.38-15.85 4.07-10.52 13.88-16.41 26.51-15.71 9.96.42 16.41 4.63 20.19 12.9.7 1.4 1.26 2.66 1.4 2.8.14.14 2.38-.28 5.05-.84 2.66-.56 5.33-1.12 5.89-1.26 1.26-.28 1.26-.84-.42-4.63a32.06 32.06 0 0 0-22.44-18.23c-4.07-.83-11.93-1.11-16.13-.69zM138.77 236.09c-3.51.56-8.55 2.8-11.22 5.05-1.26.98-2.24 1.82-2.38 1.54-.14-.14-.28-1.54-.28-3.09v-2.8h-10.66v57.92h11.5v-18.09c0-19.07.14-21.18 2.1-24.82 1.12-2.1 4.49-4.77 7.01-5.89 1.54-.7 2.95-.84 5.89-.84 3.37 0 4.07.14 6.31 1.12 3.09 1.54 4.77 3.51 5.75 7.01.56 1.96.7 5.75.7 22.02v19.63H165V275.5c0-21.18-.28-25.94-1.82-29.45-1.68-4.35-6.31-7.85-11.64-9.12-2.81-.98-9.4-1.27-12.77-.84zM200.2 236.09c-10.8 1.4-19.07 7.85-22.44 17.67-1.26 3.93-2.1 11.36-1.82 15.85.84 8.98 2.8 13.6 8.27 18.65 6.03 5.47 11.08 7.29 21.18 7.29 7.15 0 10.1-.56 15.01-2.66a21.97 21.97 0 0 0 11.08-10.24c2.1-3.93 2.66-6.03 1.82-6.03-.42 0-2.66-.28-5.33-.56-2.52-.28-4.77-.56-4.91-.56-.14 0-.84 1.12-1.54 2.52-4.63 8.98-14.87 11.78-24.54 7.01a16.48 16.48 0 0 1-7.01-7.15c-1.4-2.95-2.8-7.43-2.38-8.27.28-.56 3.79-.56 23.56-.56h23.28v-2.24c0-4.21-.98-10.52-1.96-13.74-1.4-4.07-3.79-7.43-7.57-10.66-4.91-4.35-9.68-6.03-17.39-6.31a31.1 31.1 0 0 0-7.31-.01zm12.62 9.81c3.79 1.68 6.17 3.93 7.71 7.15 1.26 2.52 2.24 6.31 1.96 6.87-.14.14-7.71.28-16.97.28-14.16 0-16.83-.14-17.25-.56-.42-.42-.42-1.12.28-2.95.98-2.95 1.68-4.35 3.65-6.59 4.78-5.6 13.61-7.42 20.62-4.2zM269.48 236.09c-4.63.7-9.4 3.09-12.2 5.89-.7.7-1.4 1.26-1.54 1.12-.14-.14-.28-1.54-.28-3.23v-2.95h-10.1v57.78h10.94l.28-18.37c.14-19.77.42-21.6 2.8-25.38 2.38-3.65 7.29-6.31 11.92-6.31 3.37 0 6.73 1.68 8.13 4.07 2.1 3.51 2.24 5.05 2.24 26.08v19.77h10.94v-17.53c0-9.82.28-18.65.42-20.19.98-5.61 4.35-9.82 9.12-11.5 3.65-1.26 6.45-1.12 9.96.56 2.24 1.12 2.95 1.68 3.79 3.23.56.98 1.26 2.8 1.4 4.07.28 1.26.42 10.38.42 21.74v19.63h11.08l-.14-23.42-.14-23.42-1.12-2.52c-1.4-3.09-5.05-6.73-7.99-7.99-2.95-1.12-8.27-1.82-12.2-1.54-5.89.56-10.52 2.66-14.3 6.59l-2.1 2.1-.84-1.4c-1.12-1.96-4.77-5.05-7.01-5.89-3.24-1.27-8.85-1.7-13.48-.99zM364.28 236.09c-9.12.98-15.29 3.93-18.79 9.12-1.26 1.68-3.51 7.43-3.51 8.55 0 .14 1.96.56 4.35.84 2.38.28 4.91.56 5.75.7.84.14 1.4 0 1.4-.28 0-1.4 2.1-5.19 3.79-7.01a9.36 9.36 0 0 1 4.91-2.95c5.61-1.54 13.32-.84 17.39 1.82 2.38 1.54 3.65 4.21 3.79 7.99v3.09l-3.93.98c-2.1.56-8.13 1.54-13.32 2.1-10.38 1.4-13.6 2.24-17.39 4.49a14.87 14.87 0 0 0-6.45 7.01c-1.26 2.52-1.26 3.09-1.26 7.01 0 3.79.14 4.63 1.12 6.59 2.1 4.35 6.31 7.57 11.36 8.84 2.1.56 4.63.7 8.41.7 8.27 0 13.04-1.26 19.07-5.19 1.68-1.12 3.09-1.82 3.09-1.54.14.14.42.98.56 1.96.14.84.56 2.1.98 2.8l.7 1.12h5.47c6.45 0 6.17.28 4.35-4.49l-1.26-3.09-.28-19.21c-.28-19.63-.42-20.76-2.1-23.98-.98-1.68-4.07-4.49-6.17-5.47-4.22-2.22-14.87-3.35-22.03-2.5zm19.22 33.37c.28 5.75-1.4 10.1-5.19 13.32-4.07 3.51-8.69 5.05-14.44 4.77-5.33-.28-8.41-1.82-10.24-5.33-1.96-3.65-.84-7.57 2.95-9.82 2.52-1.54 3.51-1.82 12.62-3.23 4.21-.7 8.84-1.54 10.38-1.96 1.54-.42 3.09-.7 3.37-.7.13.15.41 1.41.55 2.95zM88.15 265.82v28.75h11.5v-57.64h-11.5z" />
  <ellipse cx="93.9" cy="221.5" rx="5.75" ry="5.89" />
  <path
    d="M511.96 256c0 24.82-19.63 45.02-43.76 45.02-24.12 0-43.76-20.19-43.76-45.02 0-24.82 19.63-45.02 43.76-45.02 24.12 0 43.76 20.06 43.76 45.02z"
    style="fill:red" />
  <path
    d="m462.45 241.13-.14 10.38-10.8.14-10.8.14v9.82h10.38c7.57 0 10.52.14 10.94.42.42.42.56 3.23.56 10.52v9.96h10.1l.14-10.38.14-10.38 10.8-.14 10.8-.14v-9.68h-10.38c-7.57 0-10.52-.14-10.94-.42-.42-.42-.56-3.23-.56-10.52v-10.1h-10.1l-.14 10.38z"
    style="fill:#fff" />
</svg>