<?xml version="1.0" encoding="utf-8"?>
<svg version="1.1" id="Layer_1" xmlns="http://www.w3.org/2000/svg" xmlns:xlink="http://www.w3.org/1999/xlink" x="0px"
	y="0px" viewBox="0 0 512 512" style="enable-background:new 0 0 0 0;" xml:space="preserve">
	<style type="text/css">
		.st0 {
			fill: #FF0000;
		}

		.st1 {
			fill: #FFFFFF;
		}
	</style>
	<g id="XMLID_1_">
		<path id="XMLID_3_" d="M34.58,214.77c-8.84,0.98-16.27,4.07-22.16,9.12c-9.26,7.99-13.6,21.18-12.2,36.18
		c1.26,11.92,4.91,19.91,12.2,26.51c6.31,5.75,11.78,7.99,22.02,8.84c8.98,0.84,16.27-0.14,22.86-3.09
		c6.45-2.8,11.36-7.29,14.73-13.32c1.82-3.09,4.21-9.82,3.79-10.24c-0.42-0.42-9.54-2.52-10.66-2.52c-0.56,0-0.98,0.56-1.54,2.38
		c-3.65,10.66-12.48,16.97-23.98,16.97c-4.63,0-7.85-0.84-12.9-3.09c-5.33-2.52-7.99-4.91-10.52-9.82
		c-2.66-5.05-3.79-9.4-4.07-16.41c-0.28-6.45,0.42-10.8,2.38-15.85c4.07-10.52,13.88-16.41,26.51-15.71
		c9.96,0.42,16.41,4.63,20.19,12.9c0.7,1.4,1.26,2.66,1.4,2.8c0.14,0.14,2.38-0.28,5.05-0.84c2.66-0.56,5.33-1.12,5.89-1.26
		c1.26-0.28,1.26-0.84-0.42-4.63c-3.93-9.12-12.76-16.27-22.44-18.23C46.64,214.63,38.78,214.35,34.58,214.77z" />
		<path id="XMLID_4_" d="M138.77,236.09c-3.51,0.56-8.55,2.8-11.22,5.05c-1.26,0.98-2.24,1.82-2.38,1.54
		c-0.14-0.14-0.28-1.54-0.28-3.09v-2.8h-5.33h-5.33v29.03v28.89h5.75h5.75v-18.09c0-19.07,0.14-21.18,2.1-24.82
		c1.12-2.1,4.49-4.77,7.01-5.89c1.54-0.7,2.95-0.84,5.89-0.84c3.37,0,4.07,0.14,6.31,1.12c3.09,1.54,4.77,3.51,5.75,7.01
		c0.56,1.96,0.7,5.75,0.7,22.02v19.63h5.75H165v-19.35c0-21.18-0.28-25.94-1.82-29.45c-1.68-4.35-6.31-7.85-11.64-9.12
		C148.73,235.95,142.14,235.66,138.77,236.09z" />
		<path id="XMLID_7_" d="M200.2,236.09c-10.8,1.4-19.07,7.85-22.44,17.67c-1.26,3.93-2.1,11.36-1.82,15.85
		c0.84,8.98,2.8,13.6,8.27,18.65c6.03,5.47,11.08,7.29,21.18,7.29c7.15,0,10.1-0.56,15.01-2.66c5.05-2.24,8.69-5.61,11.08-10.24
		c2.1-3.93,2.66-6.03,1.82-6.03c-0.42,0-2.66-0.28-5.33-0.56c-2.52-0.28-4.77-0.56-4.91-0.56c-0.14,0-0.84,1.12-1.54,2.52
		c-4.63,8.98-14.87,11.78-24.54,7.01c-2.8-1.4-5.47-4.07-7.01-7.15c-1.4-2.95-2.8-7.43-2.38-8.27c0.28-0.56,3.79-0.56,23.56-0.56
		h23.28v-2.24c0-4.21-0.98-10.52-1.96-13.74c-1.4-4.07-3.79-7.43-7.57-10.66c-4.91-4.35-9.68-6.03-17.39-6.31
		C204.97,235.81,201.74,235.81,200.2,236.09z M212.82,245.9c3.79,1.68,6.17,3.93,7.71,7.15c1.26,2.52,2.24,6.31,1.96,6.87
		c-0.14,0.14-7.71,0.28-16.97,0.28c-14.16,0-16.83-0.14-17.25-0.56c-0.42-0.42-0.42-1.12,0.28-2.95c0.98-2.95,1.68-4.35,3.65-6.59
		C196.98,244.5,205.81,242.68,212.82,245.9z" />
		<path id="XMLID_8_" d="M269.48,236.09c-4.63,0.7-9.4,3.09-12.2,5.89c-0.7,0.7-1.4,1.26-1.54,1.12c-0.14-0.14-0.28-1.54-0.28-3.23
		v-2.95h-5.05h-5.05v28.89v28.89h5.47h5.47l0.28-18.37c0.14-19.77,0.42-21.6,2.8-25.38c2.38-3.65,7.29-6.31,11.92-6.31
		c3.37,0,6.73,1.68,8.13,4.07c2.1,3.51,2.24,5.05,2.24,26.08v19.77h5.47h5.47v-17.53c0-9.82,0.28-18.65,0.42-20.19
		c0.98-5.61,4.35-9.82,9.12-11.5c3.65-1.26,6.45-1.12,9.96,0.56c2.24,1.12,2.95,1.68,3.79,3.23c0.56,0.98,1.26,2.8,1.4,4.07
		c0.28,1.26,0.42,10.38,0.42,21.74v19.63h5.47h5.61l-0.14-23.42l-0.14-23.42l-1.12-2.52c-1.4-3.09-5.05-6.73-7.99-7.99
		c-2.95-1.12-8.27-1.82-12.2-1.54c-5.89,0.56-10.52,2.66-14.3,6.59l-2.1,2.1l-0.84-1.4c-1.12-1.96-4.77-5.05-7.01-5.89
		C279.72,235.81,274.11,235.38,269.48,236.09z" />
		<path id="XMLID_11_" d="M364.28,236.09c-9.12,0.98-15.29,3.93-18.79,9.12c-1.26,1.68-3.51,7.43-3.51,8.55
		c0,0.14,1.96,0.56,4.35,0.84c2.38,0.28,4.91,0.56,5.75,0.7c0.84,0.14,1.4,0,1.4-0.28c0-1.4,2.1-5.19,3.79-7.01
		c1.68-1.68,2.52-2.24,4.91-2.95c5.61-1.54,13.32-0.84,17.39,1.82c2.38,1.54,3.65,4.21,3.79,7.99v3.09l-3.93,0.98
		c-2.1,0.56-8.13,1.54-13.32,2.1c-10.38,1.4-13.6,2.24-17.39,4.49c-3.23,1.96-4.77,3.65-6.45,7.01c-1.26,2.52-1.26,3.09-1.26,7.01
		c0,3.79,0.14,4.63,1.12,6.59c2.1,4.35,6.31,7.57,11.36,8.84c2.1,0.56,4.63,0.7,8.41,0.7c8.27,0,13.04-1.26,19.07-5.19
		c1.68-1.12,3.09-1.82,3.09-1.54c0.14,0.14,0.42,0.98,0.56,1.96c0.14,0.84,0.56,2.1,0.98,2.8l0.7,1.12h5.47
		c6.45,0,6.17,0.28,4.35-4.49l-1.26-3.09l-0.28-19.21c-0.28-19.63-0.42-20.76-2.1-23.98c-0.98-1.68-4.07-4.49-6.17-5.47
		C382.09,236.37,371.44,235.24,364.28,236.09z M383.5,269.46c0.28,5.75-1.4,10.1-5.19,13.32c-4.07,3.51-8.69,5.05-14.44,4.77
		c-5.33-0.28-8.41-1.82-10.24-5.33c-1.96-3.65-0.84-7.57,2.95-9.82c2.52-1.54,3.51-1.82,12.62-3.23c4.21-0.7,8.84-1.54,10.38-1.96
		c1.54-0.42,3.09-0.7,3.37-0.7C383.08,266.66,383.36,267.92,383.5,269.46z" />
		<polygon id="XMLID_12_" points="88.15,265.82 88.15,294.57 93.9,294.57 99.65,294.57 99.65,265.82 99.65,236.93 93.9,236.93 
		88.15,236.93 	" />
		<ellipse id="XMLID_13_" cx="93.9" cy="221.5" rx="5.75" ry="5.89" />
		<path id="XMLID_14_" class="st0" d="M511.96,256c0,24.82-19.63,45.02-43.76,45.02c-24.12,0-43.76-20.19-43.76-45.02l0,0
		c0-24.82,19.63-45.02,43.76-45.02C492.32,210.98,511.96,231.04,511.96,256L511.96,256z" />
		<path id="XMLID_15_" class="st1" d="M462.45,241.13l-0.14,10.38l-10.8,0.14l-10.8,0.14v4.91v4.91h10.38
		c7.57,0,10.52,0.14,10.94,0.42c0.42,0.42,0.56,3.23,0.56,10.52v9.96h5.05h5.05l0.14-10.38l0.14-10.38l10.8-0.14l10.8-0.14v-4.91
		v-4.77h-10.38c-7.57,0-10.52-0.14-10.94-0.42c-0.42-0.42-0.56-3.23-0.56-10.52v-10.1h-5.05h-5.05L462.45,241.13z" />
	</g>
</svg>